Patient4_TMGait_0pt4_03_left_40_GRF.mot
version=1
nRows=45
nColumns=19
inDegrees=no
endheader
time	F1x	F1y	F1z	M1x	M1y	M1z	F2x	F2y	F2z	M2x	M2y	M2z	EC1x	EC1y	EC1z	EC2x	EC2y	EC2z
52.97	1.1113	0.85939	-0.4851	-1.4752	0.81357	-1.2213	-19.4146	745.9623	-69.5618	264.1465	85.1511	829.237	-0.0592	0.0182	-0.0073	-0.0462	0.0165	0.9585
52.9834	0.86004	1.1381	-0.33279	-1.1828	0.58154	-0.057668	-15.6577	750.9019	-66.271	266.3656	80.7629	835.0819	-0.0592	0.0182	-0.0073	-0.0462	0.0165	0.9585
52.9967	0.62081	1.4166	-0.20473	-0.94837	0.37643	0.98524	-12.2982	757.8881	-63.1531	269.4645	76.5823	842.3304	-0.0592	0.0182	-0.0073	-0.0462	0.0165	0.9585
53.0101	0.40593	1.6729	-0.10159	-0.78426	0.20871	1.8486	-9.5757	766.6938	-60.5351	273.3096	73.0061	850.6895	-0.0592	0.0182	-0.0073	-0.0462	0.0165	0.9585
53.0234	0.24189	1.8869	-0.028205	-0.68532	0.091199	2.4956	-7.5366	776.6738	-58.6273	277.6048	70.2634	859.5471	-0.0592	0.0182	-0.0073	-0.0462	0.0165	0.9585
53.0368	0.11073	2.0532	0.027148	-0.63832	0.0059097	2.9466	-6.0983	786.8735	-57.4774	281.9529	68.3836	868.0137	-0.0592	0.0182	-0.0073	-0.0462	0.0165	0.9585
53.0501	0.0090518	2.1649	0.067896	-0.62456	-0.058286	3.2205	-5.0934	796.1758	-57.0153	285.9167	67.2496	875.0296	-0.0592	0.0182	-0.0073	-0.0462	0.0165	0.9585
53.0635	-0.07445	2.1905	0.10741	-0.61645	-0.12165	3.3087	-4.2792	803.4806	-57.047	289.0848	66.5944	879.5325	-0.0592	0.0182	-0.0073	-0.0462	0.0165	0.9585
53.0769	-0.16701	2.0908	0.14498	-0.58601	-0.19621	3.1932	-3.3967	807.8483	-57.3333	291.1175	66.0971	880.6244	-0.0592	0.0182	-0.0073	-0.0462	0.0165	0.9585
53.0902	-0.27056	1.8042	0.1862	-0.50215	-0.28971	2.8105	-2.2237	808.6017	-57.6249	291.7785	65.4379	877.6761	-0.0592	0.0182	-0.0073	-0.0462	0.0165	0.9585
53.1036	-0.39707	1.2638	0.22762	-0.33151	-0.40126	2.0987	-0.61382	805.4287	-57.7505	290.9585	64.4091	870.4535	-0.0592	0.0182	-0.0073	-0.0462	0.0165	0.9585
53.1169	-0.52893	0.38933	0.2656	-0.040122	-0.51892	0.96771	1.4764	798.3865	-57.6321	288.6754	62.9441	859.1111	-0.0592	0.0182	-0.0073	-0.0462	0.0165	0.9585
53.1303	-0.64805	-0.87384	0.29491	0.39566	-0.62335	-0.63875	3.9915	787.9226	-57.3013	285.0815	61.1193	844.2288	-0.0592	0.0182	-0.0073	-0.0462	0.0165	0.9585
53.1436	-0.70428	-2.5298	0.29993	0.97667	-0.67481	-2.7199	6.8391	774.8638	-56.8506	280.4618	59.0834	826.7814	-0.0592	0.0182	-0.0073	-0.0462	0.0165	0.9585
53.157	-0.61547	-4.4941	0.26742	1.6681	-0.62154	-5.1748	9.9016	760.3282	-56.4161	275.2039	57.0304	808.0391	-0.0592	0.0182	-0.0073	-0.0462	0.0165	0.9585
53.1704	-0.2798	-6.4952	0.17291	2.3701	-0.39331	-7.6779	13.0563	745.58	-56.1294	269.7494	55.1441	789.4076	-0.0592	0.0182	-0.0073	-0.0462	0.0165	0.9585
53.1837	0.449	-8.0394	-0.00016997	2.9018	0.085318	-9.6445	16.2098	731.8448	-56.1096	264.5276	53.5819	772.224	-0.0592	0.0182	-0.0073	-0.0462	0.0165	0.9585
53.1971	1.7113	-8.3339	-0.2771	2.9741	0.89275	-10.1014	19.3088	720.1071	-56.4461	259.8829	52.4528	757.5462	-0.0592	0.0182	-0.0073	-0.0462	0.0165	0.9585
53.2104	3.6328	-6.2305	-0.66838	2.171	2.0847	-7.6399	22.3192	710.849	-57.1869	255.9845	51.812	745.8778	-0.0592	0.0182	-0.0073	-0.0462	0.0165	0.9585
53.2238	6.2814	-0.21166	-1.1692	-0.050398	3.6759	-0.38914	25.1871	703.9017	-58.305	252.7766	51.6419	737.0329	-0.0592	0.0182	-0.0073	-0.0462	0.0165	0.9585
53.2371	9.5827	11.5038	-1.7534	-4.3243	5.5972	13.8634	27.8481	698.443	-59.6922	249.9837	51.8468	730.1353	-0.0592	0.0182	-0.0073	-0.0462	0.0165	0.9585
53.2505	13.2389	30.73	-2.332	-11.295	7.6199	37.3736	30.1848	693.1428	-61.1446	247.165	52.2578	723.7918	-0.0592	0.0182	-0.0073	-0.0462	0.0165	0.9585
53.2639	16.5903	58.8798	-2.7512	-21.4566	9.3032	71.9246	32.0202	686.3654	-62.3841	243.7874	52.6565	716.3081	-0.0592	0.0182	-0.0073	-0.0462	0.0165	0.9585
53.2772	18.5032	96.2138	-2.7543	-34.8847	9.9127	117.9156	33.168	676.4303	-63.1081	239.3125	52.8058	705.9465	-0.0592	0.0182	-0.0073	-0.0462	0.0165	0.9585
53.2906	17.4235	141.0291	-1.9824	-50.9443	8.4494	173.3652	33.4792	661.9105	-63.0327	233.2904	52.4726	691.2148	-0.0592	0.0182	-0.0073	-0.0462	0.0165	0.9585
53.3039	12.532	189.6665	-0.00784	-68.2869	4.1146	233.8814	32.9152	641.8918	-61.9562	225.4473	51.4626	671.1084	-0.0592	0.0182	-0.0073	-0.0462	0.0165	0.9585
53.3173	5.1804	237.3692	3.5598	-85.1629	-3.0653	293.5401	31.5769	616.2256	-59.8119	215.7656	49.6744	645.371	-0.0592	0.0182	-0.0073	-0.0462	0.0165	0.9585
53.3306	-2.6295	279.7921	8.6709	-100.0208	-12.2599	346.6873	29.7247	585.4941	-56.7331	204.4671	47.1547	614.4471	-0.0592	0.0182	-0.0073	-0.0462	0.0165	0.9585
53.344	-9.6176	315.4591	14.6764	-112.3573	-22.2047	391.2157	27.6696	550.7976	-52.9867	191.9352	44.0641	579.3141	-0.0592	0.0182	-0.0073	-0.0462	0.0165	0.9585
53.3574	-15.3222	345.5488	20.973	-122.6303	-31.9699	428.5009	25.7021	513.3687	-48.9246	178.5815	40.6547	541.1175	-0.0592	0.0182	-0.0073	-0.0462	0.0165	0.9585
53.3707	-19.8182	372.516	27.0594	-131.7555	-40.9755	461.5793	24.0434	474.2938	-44.8453	164.7555	37.1485	500.904	-0.0592	0.0182	-0.0073	-0.0462	0.0165	0.9585
53.3841	-23.4188	398.8695	32.5842	-140.6562	-48.902	493.5651	22.7554	434.3076	-40.8823	150.6862	33.6523	459.425	-0.0592	0.0182	-0.0073	-0.0462	0.0165	0.9585
53.3974	-26.3221	426.4761	37.3093	-150.0156	-55.5511	526.7298	21.7588	393.7582	-36.9926	136.4779	30.1436	417.0689	-0.0592	0.0182	-0.0073	-0.0462	0.0165	0.9585
53.4108	-28.6285	456.4588	41.2345	-160.2255	-60.9696	562.4447	20.8563	352.7699	-33.0919	122.1595	26.5966	374.0278	-0.0592	0.0182	-0.0073	-0.0462	0.0165	0.9585
53.4241	-30.3382	489.2398	44.5404	-171.4039	-65.3906	601.231	19.7984	311.3934	-29.1251	107.7401	23.031	330.4178	-0.0592	0.0182	-0.0073	-0.0462	0.0165	0.9585
53.4375	-31.4229	524.4347	47.5851	-183.3719	-69.2402	642.6401	18.3069	269.8098	-25.1093	93.2775	19.5453	286.5009	-0.0592	0.0182	-0.0073	-0.0462	0.0165	0.9585
53.4509	-31.9767	560.9617	50.771	-195.7091	-73.0273	685.3817	16.1922	228.5298	-21.1149	78.9448	16.2658	242.8712	-0.0592	0.0182	-0.0073	-0.0462	0.0165	0.9585
53.4642	-32.1367	597.5498	54.3576	-207.9523	-77.1088	727.9058	13.4087	188.476	-17.2639	65.0569	13.3317	200.5326	-0.0592	0.0182	-0.0073	-0.0462	0.0165	0.9585
53.4776	-32.0129	633.2507	58.3325	-219.7786	-81.5139	769.0612	10.0855	150.8368	-13.6881	52.0205	10.8384	160.7445	-0.0592	0.0182	-0.0073	-0.0462	0.0165	0.9585
53.4909	-31.5941	667.4174	62.4131	-230.9977	-85.9224	808.0445	6.5451	116.7844	-10.5003	40.2385	8.7977	124.7192	-0.0592	0.0182	-0.0073	-0.0462	0.0165	0.9585
53.5043	-30.8353	699.3864	66.2568	-241.4222	-89.9201	844.059	3.1747	87.2082	-7.7779	30.0151	7.1599	93.3825	-0.0592	0.0182	-0.0073	-0.0462	0.0165	0.9585
53.5176	-29.6969	728.2188	69.5956	-250.7625	-93.1799	876.015	0.29814	62.5162	-5.541	21.4917	5.8409	67.1627	-0.0592	0.0182	-0.0073	-0.0462	0.0165	0.9585
53.531	-28.1892	752.7846	72.3234	-258.649	-95.5777	902.6455	-1.8921	42.6699	-3.7693	14.6535	4.7566	46.0402	-0.0592	0.0182	-0.0073	-0.0462	0.0165	0.9585
53.5444	-26.3852	772.0812	74.4117	-264.7489	-97.1074	922.8655	-3.2829	27.3118	-2.41	9.3726	3.8167	29.6559	-0.0592	0.0182	-0.0073	-0.0462	0.0165	0.9585
53.5577	-24.3652	785.5091	75.8657	-268.8663	-97.8109	936.0729	-3.8455	15.8995	-1.4043	5.4574	2.9539	17.4454	-0.0592	0.0182	-0.0073	-0.0462	0.0165	0.9585
